<svg width="105" height="105" viewBox="0 0 105 105" fill="none" xmlns="http://www.w3.org/2000/svg">
<path d="M87.6299 29.5928L65.5635 7.52637C64.9482 6.91113 64.1177 6.5625 63.2461 6.5625H19.6875C17.8726 6.5625 16.4062 8.02881 16.4062 9.84375V95.1562C16.4062 96.9712 17.8726 98.4375 19.6875 98.4375H85.3125C87.1274 98.4375 88.5938 96.9712 88.5938 95.1562V31.9204C88.5938 31.0488 88.2451 30.208 87.6299 29.5928ZM81.0264 33.4277H61.7285V14.1299L81.0264 33.4277ZM81.2109 91.0547H23.7891V13.9453H54.7559V36.0938C54.7559 37.2359 55.2096 38.3314 56.0172 39.139C56.8249 39.9467 57.9203 40.4004 59.0625 40.4004H81.2109V91.0547ZM55.7812 48.3984C55.7812 47.9473 55.4121 47.5781 54.9609 47.5781H50.0391C49.5879 47.5781 49.2188 47.9473 49.2188 48.3984V59.4727H38.1445C37.6934 59.4727 37.3242 59.8418 37.3242 60.293V65.2148C37.3242 65.666 37.6934 66.0352 38.1445 66.0352H49.2188V77.1094C49.2188 77.5605 49.5879 77.9297 50.0391 77.9297H54.9609C55.4121 77.9297 55.7812 77.5605 55.7812 77.1094V66.0352H66.8555C67.3066 66.0352 67.6758 65.666 67.6758 65.2148V60.293C67.6758 59.8418 67.3066 59.4727 66.8555 59.4727H55.7812V48.3984Z" fill="#E9E9E9"/>
</svg>
