<svg width="28" height="28" viewBox="0 0 28 28" fill="none" xmlns="http://www.w3.org/2000/svg">
<g clip-path="url(#clip0)">
<path d="M26.25 21C26.25 21.4641 26.0656 21.9092 25.7374 22.2374C25.4092 22.5656 24.9641 22.75 24.5 22.75H3.5C3.03587 22.75 2.59075 22.5656 2.26256 22.2374C1.93437 21.9092 1.75 21.4641 1.75 21V10.5C1.75 10.0359 1.93437 9.59075 2.26256 9.26256C2.59075 8.93437 3.03587 8.75 3.5 8.75H5.551C6.94267 8.74924 8.27709 8.19596 9.261 7.21175L10.7135 5.76275C11.0408 5.43539 11.4844 5.25103 11.9473 5.25H16.0492C16.5133 5.2501 16.9584 5.43454 17.2865 5.76275L18.7355 7.21175C19.2231 7.6995 19.802 8.0864 20.4392 8.35034C21.0764 8.61427 21.7593 8.75008 22.449 8.75H24.5C24.9641 8.75 25.4092 8.93437 25.7374 9.26256C26.0656 9.59075 26.25 10.0359 26.25 10.5V21ZM3.5 7C2.57174 7 1.6815 7.36875 1.02513 8.02513C0.368749 8.6815 0 9.57174 0 10.5L0 21C0 21.9283 0.368749 22.8185 1.02513 23.4749C1.6815 24.1313 2.57174 24.5 3.5 24.5H24.5C25.4283 24.5 26.3185 24.1313 26.9749 23.4749C27.6313 22.8185 28 21.9283 28 21V10.5C28 9.57174 27.6313 8.6815 26.9749 8.02513C26.3185 7.36875 25.4283 7 24.5 7H22.449C21.5208 6.9998 20.6307 6.63092 19.9745 5.9745L18.5255 4.5255C17.8693 3.86908 16.9792 3.5002 16.051 3.5H11.949C11.0208 3.5002 10.1307 3.86908 9.4745 4.5255L8.0255 5.9745C7.36928 6.63092 6.47918 6.9998 5.551 7H3.5Z" fill="#514E4E"/>
<path d="M14 19.25C12.8397 19.25 11.7269 18.7891 10.9064 17.9686C10.0859 17.1481 9.625 16.0353 9.625 14.875C9.625 13.7147 10.0859 12.6019 10.9064 11.7814C11.7269 10.9609 12.8397 10.5 14 10.5C15.1603 10.5 16.2731 10.9609 17.0936 11.7814C17.9141 12.6019 18.375 13.7147 18.375 14.875C18.375 16.0353 17.9141 17.1481 17.0936 17.9686C16.2731 18.7891 15.1603 19.25 14 19.25ZM14 21C15.6245 21 17.1824 20.3547 18.331 19.206C19.4797 18.0574 20.125 16.4995 20.125 14.875C20.125 13.2505 19.4797 11.6926 18.331 10.544C17.1824 9.39531 15.6245 8.75 14 8.75C12.3755 8.75 10.8176 9.39531 9.66897 10.544C8.52031 11.6926 7.875 13.2505 7.875 14.875C7.875 16.4995 8.52031 18.0574 9.66897 19.206C10.8176 20.3547 12.3755 21 14 21ZM5.25 11.375C5.25 11.6071 5.15781 11.8296 4.99372 11.9937C4.82962 12.1578 4.60706 12.25 4.375 12.25C4.14294 12.25 3.92038 12.1578 3.75628 11.9937C3.59219 11.8296 3.5 11.6071 3.5 11.375C3.5 11.1429 3.59219 10.9204 3.75628 10.7563C3.92038 10.5922 4.14294 10.5 4.375 10.5C4.60706 10.5 4.82962 10.5922 4.99372 10.7563C5.15781 10.9204 5.25 11.1429 5.25 11.375Z" fill="#514E4E"/>
</g>
<defs>
<clipPath id="clip0">
<rect width="28" height="28" fill="white"/>
</clipPath>
</defs>
</svg>
