<svg width="22" height="25" viewBox="0 0 22 25" fill="none" xmlns="http://www.w3.org/2000/svg">
<path d="M11.0001 0.75C11.9607 0.749865 12.8867 1.10883 13.5962 1.7564C14.3056 2.40398 14.7474 3.29339 14.8347 4.25H20.8001C21.0662 4.25008 21.3223 4.35114 21.5167 4.53276C21.711 4.71438 21.8293 4.96302 21.8474 5.22843C21.8655 5.49385 21.7822 5.75625 21.6143 5.96262C21.4465 6.16899 21.2065 6.30394 20.9429 6.3402L20.8001 6.35H19.9839L18.2101 21.722C18.1312 22.4044 17.8041 23.0339 17.2912 23.4908C16.7782 23.9477 16.1153 24.2001 15.4283 24.2H6.57195C5.88503 24.2001 5.22205 23.9477 4.70913 23.4908C4.19621 23.0339 3.86914 22.4044 3.79015 21.722L2.01495 6.35H1.20015C0.946414 6.34999 0.701268 6.2581 0.510044 6.09133C0.31882 5.92455 0.194454 5.69418 0.159946 5.4428L0.150146 5.3C0.150157 5.04627 0.242046 4.80112 0.40882 4.6099C0.575594 4.41867 0.805971 4.29431 1.05735 4.2598L1.20015 4.25H7.16555C7.25287 3.29339 7.69465 2.40398 8.40413 1.7564C9.11362 1.10883 10.0396 0.749865 11.0001 0.75ZM8.90015 9.5C8.55715 9.5 8.27015 9.717 8.21135 10.0026L8.20015 10.1132V18.6882L8.21135 18.7974C8.27015 19.083 8.55715 19.3 8.90015 19.3C9.24315 19.3 9.53015 19.083 9.58895 18.7974L9.60015 18.6868V10.1146L9.58895 10.0026C9.53015 9.7184 9.24315 9.5 8.90015 9.5ZM13.1001 9.5C12.7571 9.5 12.4701 9.717 12.4113 10.0026L12.4001 10.1132V18.6882L12.4113 18.7974C12.4701 19.083 12.7571 19.3 13.1001 19.3C13.4431 19.3 13.7301 19.083 13.7889 18.7974L13.8001 18.6868V10.1146L13.7889 10.0026C13.7301 9.7184 13.4431 9.5014 13.1001 9.5014V9.5ZM11.0001 2.85C10.1531 2.85 9.44615 3.452 9.28515 4.25H12.7151C12.5527 3.452 11.8471 2.85 11.0001 2.85Z" fill="#FF3D00"/>
</svg>
