<svg width="18" height="19" viewBox="0 0 18 19" fill="none" xmlns="http://www.w3.org/2000/svg">
<path d="M8.99998 0.375C9.75472 0.374894 10.4822 0.656935 11.0397 1.16575C11.5972 1.67456 11.9443 2.37338 12.0129 3.125H16.7C16.909 3.12506 17.1102 3.20447 17.2629 3.34717C17.4157 3.48987 17.5086 3.68523 17.5228 3.89377C17.5371 4.10231 17.4716 4.30848 17.3397 4.47063C17.2078 4.63278 17.0192 4.73881 16.8122 4.7673L16.7 4.775H16.0587L14.665 16.853C14.6029 17.3891 14.3459 17.8838 13.9429 18.2427C13.5399 18.6017 13.019 18.8001 12.4793 18.8H5.52068C4.98096 18.8001 4.46004 18.6017 4.05703 18.2427C3.65403 17.8838 3.39704 17.3891 3.33498 16.853L1.94018 4.775H1.29998C1.10061 4.77499 0.907999 4.70279 0.757752 4.57176C0.607504 4.44072 0.509789 4.25971 0.482676 4.0622L0.474976 3.95C0.474984 3.75064 0.547182 3.55802 0.678219 3.40778C0.809256 3.25753 0.990267 3.15981 1.18778 3.1327L1.29998 3.125H5.98708C6.05569 2.37338 6.4028 1.67456 6.96025 1.16575C7.5177 0.656935 8.24523 0.374894 8.99998 0.375ZM7.34998 7.25C7.08047 7.25 6.85498 7.4205 6.80878 7.6449L6.79997 7.7318V14.4693L6.80878 14.5551C6.85498 14.7795 7.08047 14.95 7.34998 14.95C7.61947 14.95 7.84497 14.7795 7.89117 14.5551L7.89997 14.4682V7.7329L7.89117 7.6449C7.84497 7.4216 7.61947 7.25 7.34998 7.25ZM10.65 7.25C10.3805 7.25 10.155 7.4205 10.1088 7.6449L10.1 7.7318V14.4693L10.1088 14.5551C10.155 14.7795 10.3805 14.95 10.65 14.95C10.9195 14.95 11.145 14.7795 11.1912 14.5551L11.2 14.4682V7.7329L11.1912 7.6449C11.145 7.4216 10.9195 7.2511 10.65 7.2511V7.25ZM8.99998 2.025C8.33448 2.025 7.77897 2.498 7.65247 3.125H10.3475C10.2199 2.498 9.66547 2.025 8.99998 2.025Z" fill="black"/>
</svg>
