<svg width="16" height="20" viewBox="0 0 16 20" fill="none" xmlns="http://www.w3.org/2000/svg">
<path d="M15.5065 5.45357L9.99655 0.703571C9.83913 0.567857 9.6817 0.5 9.44556 0.5H1.57426C0.708417 0.5 0 1.11071 0 1.85714V18.1429C0 18.8893 0.708417 19.5 1.57426 19.5H14.1683C15.0342 19.5 15.7426 18.8893 15.7426 18.1429V5.92857C15.7426 5.725 15.6639 5.58929 15.5065 5.45357ZM9.44556 2.12857L13.8535 5.92857H9.44556V2.12857ZM14.1683 18.1429H1.57426V1.85714H7.8713V5.92857C7.8713 6.675 8.57972 7.28571 9.44556 7.28571H14.1683V18.1429Z" fill="#626060"/>
<path d="M3.14844 14.0714H12.594V15.4286H3.14844V14.0714Z" fill="#626060"/>
<path d="M3.14844 10H12.594V11.3571H3.14844V10Z" fill="#626060"/>
</svg>
