<svg width="13" height="12" viewBox="0 0 13 12" fill="none" xmlns="http://www.w3.org/2000/svg">
<path d="M11.7416 2.32492L9.8008 0.384087C9.54749 0.146155 9.21557 0.00963301 8.86816 0.000490703C8.52075 -0.0086516 8.1821 0.110224 7.91663 0.334504L1.54163 6.7095C1.31268 6.94039 1.17012 7.24302 1.13788 7.56659L0.833299 10.5203C0.823757 10.6241 0.83722 10.7287 0.872726 10.8266C0.908233 10.9246 0.964909 11.0135 1.03872 11.087C1.1049 11.1527 1.1834 11.2046 1.2697 11.2398C1.356 11.2751 1.44841 11.293 1.54163 11.2924H1.60538L4.55913 11.0233C4.8827 10.991 5.18532 10.8485 5.41622 10.6195L11.7912 4.2445C12.0386 3.98311 12.1724 3.63428 12.1631 3.27447C12.1538 2.91465 12.0022 2.5732 11.7416 2.32492ZM9.3333 4.69075L7.43497 2.79242L8.81622 1.37575L10.75 3.3095L9.3333 4.69075Z" fill="black"/>
</svg>
