<svg width="50" height="49" viewBox="0 0 50 49" fill="none" xmlns="http://www.w3.org/2000/svg">
<path d="M37.5 44.9167H12.5C10.1989 44.9167 8.33337 43.0886 8.33337 40.8334V8.16667C8.33337 5.9115 10.1989 4.08333 12.5 4.08333H27.0834C27.1021 4.08095 27.1209 4.08095 27.1396 4.08333H27.1521C27.1717 4.08936 27.1921 4.09346 27.2125 4.09558C27.3963 4.10712 27.5777 4.14211 27.7521 4.19971H27.7834H27.8146H27.8396C27.8782 4.22609 27.9142 4.25545 27.948 4.2875C28.1748 4.38636 28.3817 4.5247 28.5584 4.69583L41.0584 16.9458C41.233 17.1189 41.3742 17.3216 41.475 17.544C41.4938 17.589 41.5084 17.6318 41.523 17.6788L41.5438 17.736C41.6019 17.9062 41.6363 18.0834 41.6459 18.2627C41.6477 18.283 41.6525 18.303 41.6604 18.3219V18.3342C41.6638 18.3475 41.6659 18.3612 41.6667 18.375V40.8334C41.6667 41.9163 41.2277 42.9548 40.4463 43.7207C39.6648 44.4865 38.605 44.9167 37.5 44.9167ZM18.75 32.6667L12.5 40.8334H37.5L27.0834 26.5417L20.8334 34.7084L18.75 32.6667ZM17.7084 22.4584C16.0042 22.4606 14.616 23.8005 14.588 25.4704C14.56 27.1403 15.9024 28.5244 17.6056 28.5815C19.3089 28.6387 20.7447 27.3479 20.8334 25.6801V26.2722V25.5209C20.8334 23.8295 19.4343 22.4584 17.7084 22.4584ZM27.0834 8.16667V18.375H37.5L27.0834 8.16667Z" fill="black" fill-opacity="0.1"/>
</svg>
