<svg width="25" height="24" viewBox="0 0 25 24" fill="none" xmlns="http://www.w3.org/2000/svg">
<path d="M22.6853 4.23529H18.5178V3.29412C18.5169 2.42076 18.1752 1.58345 17.5676 0.965891C16.9601 0.348333 16.1364 0.00096533 15.2772 0H9.72186C8.86269 0.00096533 8.03897 0.348333 7.43145 0.965891C6.82392 1.58345 6.48219 2.42076 6.48124 3.29412V4.23529H2.31565C1.70196 4.23598 1.11359 4.4841 0.679639 4.92521C0.245689 5.36632 0.00159978 5.96441 0.000925825 6.58824V16.4524C0.000925825 16.4585 0 16.4645 0 16.4706C0 16.4767 0.000810088 16.4827 0.000925825 16.4888V21.6471C0.00159978 22.2709 0.245689 22.869 0.679639 23.3101C1.11359 23.7512 1.70196 23.9993 2.31565 24H22.6853C23.299 23.9993 23.8873 23.7512 24.3213 23.3101C24.7552 22.869 24.9993 22.2709 25 21.6471V6.58824C24.9993 5.96441 24.7552 5.36632 24.3213 4.92521C23.8873 4.4841 23.299 4.23598 22.6853 4.23529ZM9.25892 3.29412C9.25907 3.16936 9.30789 3.04975 9.39468 2.96153C9.48147 2.87331 9.59913 2.82369 9.72186 2.82353H15.2772C15.3999 2.82369 15.5176 2.87331 15.6044 2.96153C15.6912 3.04975 15.74 3.16936 15.7402 3.29412V4.23529H9.25892V3.29412ZM22.2223 7.05882V15.0588H2.7786V7.05882H22.2223ZM2.7786 21.1765V17.8824H22.2223V21.1765H2.7786Z" fill="white"/>
</svg>
