<svg width="30" height="20" viewBox="0 0 30 20" fill="none" xmlns="http://www.w3.org/2000/svg">
<path d="M0.956669 2.14333L13.4567 8.85833C13.8767 9.08333 14.42 9.19 14.9667 9.19C15.5133 9.19 16.0567 9.08333 16.4767 8.85833L28.9767 2.14333C29.7917 1.705 30.5617 0 29.0667 0H0.868336C-0.626664 0 0.143336 1.705 0.956669 2.14333ZM29.355 5.815L16.4767 12.5267C15.91 12.8233 15.5133 12.8583 14.9667 12.8583C14.42 12.8583 14.0233 12.8233 13.4567 12.5267C12.89 12.23 1.56834 6.295 0.643336 5.81333C-0.0066639 5.47333 2.69343e-06 5.87167 2.69343e-06 6.17833V18.3333C2.69343e-06 19.0333 0.943336 20 1.66667 20H28.3333C29.0567 20 30 19.0333 30 18.3333V6.18C30 5.87333 30.0067 5.475 29.355 5.815Z" fill="#FF3D00"/>
</svg>
