<svg width="24" height="24" viewBox="0 0 24 24" fill="none" xmlns="http://www.w3.org/2000/svg">
<path d="M10.4096 5.66483L6.68832 1.36959C6.25933 0.874615 5.47283 0.876815 4.97453 1.37618L1.91435 4.4417C1.00356 5.35355 0.742857 6.70757 1.26975 7.7932C4.41752 14.3103 9.67376 19.5736 16.1868 22.7303C17.2714 23.2572 18.6244 22.9965 19.5352 22.0846L22.6239 18.9905C23.1244 18.4901 23.1255 17.6992 22.6261 17.2702L18.3142 13.569C17.8632 13.1818 17.1625 13.2324 16.7104 13.6855L15.21 15.1881C15.1332 15.2686 15.0321 15.3216 14.9222 15.3391C14.8123 15.3566 14.6997 15.3375 14.6017 15.2849C12.1492 13.8726 10.1148 11.8357 8.70571 9.38151C8.65294 9.28334 8.63384 9.17057 8.65132 9.0605C8.66881 8.95042 8.72192 8.84913 8.80251 8.77214L10.2985 7.27513C10.7517 6.81976 10.8012 6.1158 10.4096 5.66373V5.66483Z" stroke="#FF3D00" stroke-width="2" stroke-linecap="round" stroke-linejoin="round"/>
</svg>
