<svg width="18" height="18" viewBox="0 0 18 18" fill="none" xmlns="http://www.w3.org/2000/svg">
<path d="M16.4663 18L10.2718 11.8048C7.51606 13.7638 3.71895 13.2846 1.53643 10.7024C-0.646073 8.12025 -0.485818 4.29658 1.9051 1.90607C4.29539 -0.485478 8.11968 -0.646417 10.7025 1.53585C13.2852 3.71811 13.7648 7.51543 11.8055 10.2711L18 16.4664L16.4674 17.9989L16.4663 18ZM6.50302 2.16835C4.44761 2.16788 2.67433 3.61061 2.25679 5.62303C1.83926 7.63545 2.89222 9.66451 4.77818 10.4817C6.66413 11.2988 8.86476 10.6795 10.0476 8.99881C11.2306 7.31798 11.0706 5.03763 9.66479 3.53834L10.3205 4.18864L9.58132 3.45163L9.56832 3.43862C8.75734 2.62268 7.65349 2.16525 6.50302 2.16835Z" fill="black"/>
</svg>
