<svg width="17" height="19" viewBox="0 0 17 19" fill="none" xmlns="http://www.w3.org/2000/svg">
<path d="M13.6587 12.5361C13.2995 12.5375 12.9443 12.6158 12.6143 12.7661C12.2844 12.9165 11.9866 13.1359 11.7388 13.4111L5.23773 9.96723C5.39765 9.45389 5.39765 8.89975 5.23773 8.38641L11.7494 4.88039C12.2158 5.40072 12.8483 5.71888 13.524 5.77302C14.1997 5.82716 14.8702 5.61342 15.4053 5.17335C15.9404 4.73327 16.3018 4.0983 16.4193 3.39184C16.5368 2.68539 16.4019 1.95793 16.041 1.35085C15.6801 0.743771 15.1188 0.300449 14.4663 0.107049C13.8138 -0.0863513 13.1167 -0.0160118 12.5104 0.304396C11.9042 0.624803 11.4322 1.17239 11.186 1.84072C10.9399 2.50905 10.9373 3.25038 11.1788 3.92061L4.73109 7.39276C4.38286 6.94192 3.91144 6.61612 3.38145 6.46004C2.85146 6.30395 2.28884 6.32522 1.77071 6.52092C1.25259 6.71662 0.804317 7.07718 0.487353 7.55317C0.170388 8.02915 0.000244141 8.59727 0.000244141 9.17964C0.000244141 9.76202 0.170388 10.3301 0.487353 10.8061C0.804317 11.2821 1.25259 11.6427 1.77071 11.8384C2.28884 12.0341 2.85146 12.0553 3.38145 11.8993C3.91144 11.7432 4.38286 11.4174 4.73109 10.9665L11.1628 14.3935C11.0541 14.7024 10.9981 15.0293 10.9975 15.3589C10.9975 15.9172 11.1538 16.463 11.4468 16.9272C11.7399 17.3915 12.1563 17.7533 12.6436 17.9669C13.1308 18.1806 13.667 18.2365 14.1842 18.1276C14.7015 18.0187 15.1766 17.7498 15.5495 17.355C15.9224 16.9602 16.1764 16.4572 16.2793 15.9096C16.3822 15.3621 16.3294 14.7945 16.1276 14.2787C15.9257 13.7628 15.584 13.322 15.1454 13.0118C14.7069 12.7016 14.1914 12.5361 13.664 12.5361H13.6587ZM13.6587 1.24452C13.9751 1.24452 14.2844 1.34386 14.5475 1.52997C14.8106 1.71608 15.0157 1.9806 15.1368 2.29009C15.2579 2.59958 15.2896 2.94013 15.2278 3.26868C15.1661 3.59723 15.0137 3.89903 14.79 4.1359C14.5662 4.37277 14.2811 4.53408 13.9708 4.59944C13.6604 4.66479 13.3387 4.63125 13.0464 4.50305C12.754 4.37486 12.5042 4.15777 12.3284 3.87924C12.1526 3.6007 12.0587 3.27324 12.0587 2.93825C12.0587 2.48905 12.2273 2.05824 12.5273 1.7406C12.8274 1.42297 13.2343 1.24452 13.6587 1.24452ZM2.70985 10.8423C2.39342 10.8423 2.08409 10.743 1.82098 10.5569C1.55788 10.3708 1.35281 10.1062 1.23172 9.79675C1.11062 9.48727 1.07894 9.14671 1.14067 8.81816C1.2024 8.48961 1.35478 8.18782 1.57854 7.95094C1.80229 7.71407 2.08737 7.55276 2.39772 7.48741C2.70808 7.42205 3.02977 7.4556 3.32212 7.58379C3.61446 7.71198 3.86434 7.92907 4.04014 8.20761C4.21594 8.48614 4.30978 8.8136 4.30978 9.14859C4.30978 9.5978 4.14121 10.0286 3.84117 10.3462C3.54113 10.6639 3.13418 10.8423 2.70985 10.8423ZM13.6587 17.0527C13.3422 17.0527 13.0329 16.9533 12.7698 16.7672C12.5067 16.5811 12.3016 16.3166 12.1805 16.0071C12.0594 15.6976 12.0277 15.3571 12.0895 15.0285C12.1512 14.7 12.3036 14.3982 12.5273 14.1613C12.7511 13.9244 13.0362 13.7631 13.3465 13.6977C13.6569 13.6324 13.9786 13.6659 14.2709 13.7941C14.5633 13.9223 14.8131 14.1394 14.9889 14.4179C15.1647 14.6965 15.2586 15.0239 15.2586 15.3589C15.2586 15.8081 15.09 16.2389 14.79 16.5566C14.4899 16.8742 14.083 17.0527 13.6587 17.0527Z" fill="#626262"/>
</svg>
