<svg width="196" height="15" viewBox="0 0 196 15" fill="none" xmlns="http://www.w3.org/2000/svg">
<path d="M0.47185 6.114C0.47185 5.162 0.691183 4.308 1.12985 3.552C1.57785 2.796 2.17985 2.208 2.93585 1.788C3.70118 1.35867 4.53652 1.144 5.44185 1.144C6.47785 1.144 7.39718 1.40067 8.19985 1.914C9.01185 2.418 9.59985 3.13667 9.96385 4.07H8.04585C7.79385 3.55667 7.44385 3.174 6.99585 2.922C6.54785 2.67 6.02985 2.544 5.44185 2.544C4.79785 2.544 4.22385 2.68867 3.71985 2.978C3.21585 3.26733 2.81918 3.68267 2.52985 4.224C2.24985 4.76533 2.10985 5.39533 2.10985 6.114C2.10985 6.83267 2.24985 7.46267 2.52985 8.004C2.81918 8.54533 3.21585 8.96533 3.71985 9.264C4.22385 9.55333 4.79785 9.698 5.44185 9.698C6.02985 9.698 6.54785 9.572 6.99585 9.32C7.44385 9.068 7.79385 8.68533 8.04585 8.172H9.96385C9.59985 9.10533 9.01185 9.824 8.19985 10.328C7.39718 10.832 6.47785 11.084 5.44185 11.084C4.52718 11.084 3.69185 10.874 2.93585 10.454C2.17985 10.0247 1.57785 9.432 1.12985 8.676C0.691183 7.92 0.47185 7.066 0.47185 6.114ZM13.428 4.406C13.6613 4.014 13.9693 3.71067 14.352 3.496C14.744 3.272 15.206 3.16 15.738 3.16V4.812H15.332C14.7066 4.812 14.2306 4.97067 13.904 5.288C13.5866 5.60533 13.428 6.156 13.428 6.94V11H11.832V3.286H13.428V4.406ZM24.275 6.954C24.275 7.24333 24.2564 7.50467 24.219 7.738H18.325C18.3717 8.354 18.6004 8.84867 19.011 9.222C19.4217 9.59533 19.9257 9.782 20.523 9.782C21.3817 9.782 21.9884 9.42267 22.343 8.704H24.065C23.8317 9.41333 23.407 9.99667 22.791 10.454C22.1844 10.902 21.4284 11.126 20.523 11.126C19.7857 11.126 19.123 10.9627 18.535 10.636C17.9564 10.3 17.499 9.83333 17.163 9.236C16.8364 8.62933 16.673 7.92933 16.673 7.136C16.673 6.34267 16.8317 5.64733 17.149 5.05C17.4757 4.44333 17.9284 3.97667 18.507 3.65C19.095 3.32333 19.767 3.16 20.523 3.16C21.251 3.16 21.8997 3.31867 22.469 3.636C23.0384 3.95333 23.4817 4.40133 23.799 4.98C24.1164 5.54933 24.275 6.20733 24.275 6.954ZM22.609 6.45C22.5997 5.862 22.3897 5.39067 21.979 5.036C21.5684 4.68133 21.0597 4.504 20.453 4.504C19.9024 4.504 19.431 4.68133 19.039 5.036C18.647 5.38133 18.4137 5.85267 18.339 6.45H22.609ZM25.3136 7.108C25.3136 6.33333 25.4723 5.64733 25.7896 5.05C26.1163 4.45267 26.555 3.99067 27.1056 3.664C27.6656 3.328 28.2816 3.16 28.9536 3.16C29.5603 3.16 30.0876 3.28133 30.5356 3.524C30.993 3.75733 31.357 4.05133 31.6276 4.406V3.286H33.2376V11H31.6276V9.852C31.357 10.216 30.9883 10.5193 30.5216 10.762C30.055 11.0047 29.523 11.126 28.9256 11.126C28.263 11.126 27.6563 10.958 27.1056 10.622C26.555 10.2767 26.1163 9.80067 25.7896 9.194C25.4723 8.578 25.3136 7.88267 25.3136 7.108ZM31.6276 7.136C31.6276 6.604 31.5156 6.142 31.2916 5.75C31.077 5.358 30.7923 5.05933 30.4376 4.854C30.083 4.64867 29.7003 4.546 29.2896 4.546C28.879 4.546 28.4963 4.64867 28.1416 4.854C27.787 5.05 27.4976 5.344 27.2736 5.736C27.059 6.11867 26.9516 6.576 26.9516 7.108C26.9516 7.64 27.059 8.10667 27.2736 8.508C27.4976 8.90933 27.787 9.21733 28.1416 9.432C28.5056 9.63733 28.8883 9.74 29.2896 9.74C29.7003 9.74 30.083 9.63733 30.4376 9.432C30.7923 9.22667 31.077 8.928 31.2916 8.536C31.5156 8.13467 31.6276 7.668 31.6276 7.136ZM37.1959 4.588V8.858C37.1959 9.14733 37.2613 9.35733 37.3919 9.488C37.5319 9.60933 37.7653 9.67 38.0919 9.67H39.0719V11H37.8119C37.0933 11 36.5426 10.832 36.1599 10.496C35.7773 10.16 35.5859 9.614 35.5859 8.858V4.588H34.6759V3.286H35.5859V1.368H37.1959V3.286H39.0719V4.588H37.1959ZM47.6129 6.954C47.6129 7.24333 47.5942 7.50467 47.5569 7.738H41.6629C41.7096 8.354 41.9382 8.84867 42.3489 9.222C42.7596 9.59533 43.2636 9.782 43.8609 9.782C44.7196 9.782 45.3262 9.42267 45.6809 8.704H47.4029C47.1696 9.41333 46.7449 9.99667 46.1289 10.454C45.5222 10.902 44.7662 11.126 43.8609 11.126C43.1236 11.126 42.4609 10.9627 41.8729 10.636C41.2942 10.3 40.8369 9.83333 40.5009 9.236C40.1742 8.62933 40.0109 7.92933 40.0109 7.136C40.0109 6.34267 40.1696 5.64733 40.4869 5.05C40.8136 4.44333 41.2662 3.97667 41.8449 3.65C42.4329 3.32333 43.1049 3.16 43.8609 3.16C44.5889 3.16 45.2376 3.31867 45.8069 3.636C46.3762 3.95333 46.8196 4.40133 47.1369 4.98C47.4542 5.54933 47.6129 6.20733 47.6129 6.954ZM45.9469 6.45C45.9376 5.862 45.7276 5.39067 45.3169 5.036C44.9062 4.68133 44.3976 4.504 43.7909 4.504C43.2402 4.504 42.7689 4.68133 42.3769 5.036C41.9849 5.38133 41.7516 5.85267 41.6769 6.45H45.9469ZM52.2883 7.108C52.2883 6.33333 52.4469 5.64733 52.7643 5.05C53.0909 4.45267 53.5296 3.99067 54.0803 3.664C54.6403 3.328 55.2563 3.16 55.9283 3.16C56.5349 3.16 57.0623 3.28133 57.5103 3.524C57.9676 3.75733 58.3316 4.05133 58.6023 4.406V3.286H60.2123V11H58.6023V9.852C58.3316 10.216 57.9629 10.5193 57.4963 10.762C57.0296 11.0047 56.4976 11.126 55.9003 11.126C55.2376 11.126 54.6309 10.958 54.0803 10.622C53.5296 10.2767 53.0909 9.80067 52.7643 9.194C52.4469 8.578 52.2883 7.88267 52.2883 7.108ZM58.6023 7.136C58.6023 6.604 58.4903 6.142 58.2663 5.75C58.0516 5.358 57.7669 5.05933 57.4123 4.854C57.0576 4.64867 56.6749 4.546 56.2643 4.546C55.8536 4.546 55.4709 4.64867 55.1163 4.854C54.7616 5.05 54.4723 5.344 54.2483 5.736C54.0336 6.11867 53.9263 6.576 53.9263 7.108C53.9263 7.64 54.0336 8.10667 54.2483 8.508C54.4723 8.90933 54.7616 9.21733 55.1163 9.432C55.4803 9.63733 55.8629 9.74 56.2643 9.74C56.6749 9.74 57.0576 9.63733 57.4123 9.432C57.7669 9.22667 58.0516 8.928 58.2663 8.536C58.4903 8.13467 58.6023 7.668 58.6023 7.136ZM61.7765 7.136C61.7765 6.34267 61.9352 5.64733 62.2525 5.05C62.5792 4.44333 63.0272 3.97667 63.5965 3.65C64.1659 3.32333 64.8192 3.16 65.5565 3.16C66.4899 3.16 67.2599 3.384 67.8665 3.832C68.4825 4.27067 68.8979 4.90067 69.1125 5.722H67.3905C67.2505 5.33933 67.0265 5.04067 66.7185 4.826C66.4105 4.61133 66.0232 4.504 65.5565 4.504C64.9032 4.504 64.3805 4.73733 63.9885 5.204C63.6059 5.66133 63.4145 6.30533 63.4145 7.136C63.4145 7.96667 63.6059 8.61533 63.9885 9.082C64.3805 9.54867 64.9032 9.782 65.5565 9.782C66.4805 9.782 67.0919 9.376 67.3905 8.564H69.1125C68.8885 9.348 68.4685 9.97333 67.8525 10.44C67.2365 10.8973 66.4712 11.126 65.5565 11.126C64.8192 11.126 64.1659 10.9627 63.5965 10.636C63.0272 10.3 62.5792 9.83333 62.2525 9.236C61.9352 8.62933 61.7765 7.92933 61.7765 7.136ZM70.1711 7.136C70.1711 6.34267 70.3297 5.64733 70.6471 5.05C70.9737 4.44333 71.4217 3.97667 71.9911 3.65C72.5604 3.32333 73.2137 3.16 73.9511 3.16C74.8844 3.16 75.6544 3.384 76.2611 3.832C76.8771 4.27067 77.2924 4.90067 77.5071 5.722H75.7851C75.6451 5.33933 75.4211 5.04067 75.1131 4.826C74.8051 4.61133 74.4177 4.504 73.9511 4.504C73.2977 4.504 72.7751 4.73733 72.3831 5.204C72.0004 5.66133 71.8091 6.30533 71.8091 7.136C71.8091 7.96667 72.0004 8.61533 72.3831 9.082C72.7751 9.54867 73.2977 9.782 73.9511 9.782C74.8751 9.782 75.4864 9.376 75.7851 8.564H77.5071C77.2831 9.348 76.8631 9.97333 76.2471 10.44C75.6311 10.8973 74.8657 11.126 73.9511 11.126C73.2137 11.126 72.5604 10.9627 71.9911 10.636C71.4217 10.3 70.9737 9.83333 70.6471 9.236C70.3297 8.62933 70.1711 7.92933 70.1711 7.136ZM82.4436 11.126C81.7156 11.126 81.0576 10.9627 80.4696 10.636C79.8816 10.3 79.4196 9.83333 79.0836 9.236C78.7476 8.62933 78.5796 7.92933 78.5796 7.136C78.5796 6.352 78.7523 5.65667 79.0976 5.05C79.4429 4.44333 79.9143 3.97667 80.5116 3.65C81.1089 3.32333 81.7763 3.16 82.5136 3.16C83.2509 3.16 83.9183 3.32333 84.5156 3.65C85.1129 3.97667 85.5843 4.44333 85.9296 5.05C86.2749 5.65667 86.4476 6.352 86.4476 7.136C86.4476 7.92 86.2703 8.61533 85.9156 9.222C85.5609 9.82867 85.0756 10.3 84.4596 10.636C83.8529 10.9627 83.1809 11.126 82.4436 11.126ZM82.4436 9.74C82.8543 9.74 83.2369 9.642 83.5916 9.446C83.9556 9.25 84.2496 8.956 84.4736 8.564C84.6976 8.172 84.8096 7.696 84.8096 7.136C84.8096 6.576 84.7023 6.10467 84.4876 5.722C84.2729 5.33 83.9883 5.036 83.6336 4.84C83.2789 4.644 82.8963 4.546 82.4856 4.546C82.0749 4.546 81.6923 4.644 81.3376 4.84C80.9923 5.036 80.7169 5.33 80.5116 5.722C80.3063 6.10467 80.2036 6.576 80.2036 7.136C80.2036 7.96667 80.4136 8.61067 80.8336 9.068C81.2629 9.516 81.7996 9.74 82.4436 9.74ZM95.0113 3.286V11H93.4153V10.09C93.1633 10.4073 92.832 10.6593 92.4213 10.846C92.02 11.0233 91.5907 11.112 91.1333 11.112C90.5267 11.112 89.9807 10.986 89.4953 10.734C89.0193 10.482 88.6413 10.1087 88.3613 9.614C88.0907 9.11933 87.9553 8.522 87.9553 7.822V3.286H89.5373V7.584C89.5373 8.27467 89.71 8.80667 90.0553 9.18C90.4007 9.544 90.872 9.726 91.4693 9.726C92.0667 9.726 92.538 9.544 92.8833 9.18C93.238 8.80667 93.4153 8.27467 93.4153 7.584V3.286H95.0113ZM101.009 3.16C101.616 3.16 102.157 3.286 102.633 3.538C103.118 3.79 103.496 4.16333 103.767 4.658C104.038 5.15267 104.173 5.75 104.173 6.45V11H102.591V6.688C102.591 5.99733 102.418 5.47 102.073 5.106C101.728 4.73267 101.256 4.546 100.659 4.546C100.062 4.546 99.5858 4.73267 99.2311 5.106C98.8858 5.47 98.7131 5.99733 98.7131 6.688V11H97.1171V3.286H98.7131V4.168C98.9745 3.85067 99.3058 3.60333 99.7071 3.426C100.118 3.24867 100.552 3.16 101.009 3.16ZM108.071 4.588V8.858C108.071 9.14733 108.136 9.35733 108.267 9.488C108.407 9.60933 108.64 9.67 108.967 9.67H109.947V11H108.687C107.968 11 107.418 10.832 107.035 10.496C106.652 10.16 106.461 9.614 106.461 8.858V4.588H105.551V3.286H106.461V1.368H108.071V3.286H109.947V4.588H108.071ZM125.415 3.286L123.021 11H121.341L119.787 5.302L118.233 11H116.553L114.145 3.286H115.769L117.379 9.488L119.017 3.286H120.683L122.251 9.46L123.847 3.286H125.415ZM127.419 2.264C127.13 2.264 126.887 2.166 126.691 1.97C126.495 1.774 126.397 1.53133 126.397 1.242C126.397 0.952666 126.495 0.71 126.691 0.514C126.887 0.318 127.13 0.219999 127.419 0.219999C127.699 0.219999 127.937 0.318 128.133 0.514C128.329 0.71 128.427 0.952666 128.427 1.242C128.427 1.53133 128.329 1.774 128.133 1.97C127.937 2.166 127.699 2.264 127.419 2.264ZM128.203 3.286V11H126.607V3.286H128.203ZM132.161 4.588V8.858C132.161 9.14733 132.226 9.35733 132.357 9.488C132.497 9.60933 132.73 9.67 133.057 9.67H134.037V11H132.777C132.058 11 131.507 10.832 131.125 10.496C130.742 10.16 130.551 9.614 130.551 8.858V4.588H129.641V3.286H130.551V1.368H132.161V3.286H134.037V4.588H132.161ZM139.498 3.16C140.086 3.16 140.608 3.286 141.066 3.538C141.532 3.79 141.896 4.16333 142.158 4.658C142.428 5.15267 142.564 5.75 142.564 6.45V11H140.982V6.688C140.982 5.99733 140.809 5.47 140.464 5.106C140.118 4.73267 139.647 4.546 139.05 4.546C138.452 4.546 137.976 4.73267 137.622 5.106C137.276 5.47 137.104 5.99733 137.104 6.688V11H135.508V0.64H137.104V4.182C137.374 3.85533 137.715 3.60333 138.126 3.426C138.546 3.24867 139.003 3.16 139.498 3.16ZM151.344 3.16C151.942 3.16 152.469 3.28133 152.926 3.524C153.393 3.75733 153.757 4.05133 154.018 4.406V3.286H155.628V11.126C155.628 11.8353 155.479 12.4653 155.18 13.016C154.882 13.576 154.448 14.0147 153.878 14.332C153.318 14.6493 152.646 14.808 151.862 14.808C150.817 14.808 149.949 14.5607 149.258 14.066C148.568 13.5807 148.176 12.918 148.082 12.078H149.664C149.786 12.4793 150.042 12.8013 150.434 13.044C150.836 13.296 151.312 13.422 151.862 13.422C152.506 13.422 153.024 13.226 153.416 12.834C153.818 12.442 154.018 11.8727 154.018 11.126V9.838C153.748 10.202 153.379 10.51 152.912 10.762C152.455 11.0047 151.932 11.126 151.344 11.126C150.672 11.126 150.056 10.958 149.496 10.622C148.946 10.2767 148.507 9.80067 148.18 9.194C147.863 8.578 147.704 7.88267 147.704 7.108C147.704 6.33333 147.863 5.64733 148.18 5.05C148.507 4.45267 148.946 3.99067 149.496 3.664C150.056 3.328 150.672 3.16 151.344 3.16ZM154.018 7.136C154.018 6.604 153.906 6.142 153.682 5.75C153.468 5.358 153.183 5.05933 152.828 4.854C152.474 4.64867 152.091 4.546 151.68 4.546C151.27 4.546 150.887 4.64867 150.532 4.854C150.178 5.05 149.888 5.344 149.664 5.736C149.45 6.11867 149.342 6.576 149.342 7.108C149.342 7.64 149.45 8.10667 149.664 8.508C149.888 8.90933 150.178 9.21733 150.532 9.432C150.896 9.63733 151.279 9.74 151.68 9.74C152.091 9.74 152.474 9.63733 152.828 9.432C153.183 9.22667 153.468 8.928 153.682 8.536C153.906 8.13467 154.018 7.668 154.018 7.136ZM161.071 11.126C160.343 11.126 159.685 10.9627 159.097 10.636C158.509 10.3 158.047 9.83333 157.711 9.236C157.375 8.62933 157.207 7.92933 157.207 7.136C157.207 6.352 157.379 5.65667 157.725 5.05C158.07 4.44333 158.541 3.97667 159.139 3.65C159.736 3.32333 160.403 3.16 161.141 3.16C161.878 3.16 162.545 3.32333 163.143 3.65C163.74 3.97667 164.211 4.44333 164.557 5.05C164.902 5.65667 165.075 6.352 165.075 7.136C165.075 7.92 164.897 8.61533 164.543 9.222C164.188 9.82867 163.703 10.3 163.087 10.636C162.48 10.9627 161.808 11.126 161.071 11.126ZM161.071 9.74C161.481 9.74 161.864 9.642 162.219 9.446C162.583 9.25 162.877 8.956 163.101 8.564C163.325 8.172 163.437 7.696 163.437 7.136C163.437 6.576 163.329 6.10467 163.115 5.722C162.9 5.33 162.615 5.036 162.261 4.84C161.906 4.644 161.523 4.546 161.113 4.546C160.702 4.546 160.319 4.644 159.965 4.84C159.619 5.036 159.344 5.33 159.139 5.722C158.933 6.10467 158.831 6.576 158.831 7.136C158.831 7.96667 159.041 8.61067 159.461 9.068C159.89 9.516 160.427 9.74 161.071 9.74ZM169.998 11.126C169.27 11.126 168.612 10.9627 168.024 10.636C167.436 10.3 166.974 9.83333 166.638 9.236C166.302 8.62933 166.134 7.92933 166.134 7.136C166.134 6.352 166.307 5.65667 166.652 5.05C166.998 4.44333 167.469 3.97667 168.066 3.65C168.664 3.32333 169.331 3.16 170.068 3.16C170.806 3.16 171.473 3.32333 172.07 3.65C172.668 3.97667 173.139 4.44333 173.484 5.05C173.83 5.65667 174.002 6.352 174.002 7.136C174.002 7.92 173.825 8.61533 173.47 9.222C173.116 9.82867 172.63 10.3 172.014 10.636C171.408 10.9627 170.736 11.126 169.998 11.126ZM169.998 9.74C170.409 9.74 170.792 9.642 171.146 9.446C171.51 9.25 171.804 8.956 172.028 8.564C172.252 8.172 172.364 7.696 172.364 7.136C172.364 6.576 172.257 6.10467 172.042 5.722C171.828 5.33 171.543 5.036 171.188 4.84C170.834 4.644 170.451 4.546 170.04 4.546C169.63 4.546 169.247 4.644 168.892 4.84C168.547 5.036 168.272 5.33 168.066 5.722C167.861 6.10467 167.758 6.576 167.758 7.136C167.758 7.96667 167.968 8.61067 168.388 9.068C168.818 9.516 169.354 9.74 169.998 9.74ZM178.688 3.16C179.285 3.16 179.813 3.28133 180.27 3.524C180.737 3.75733 181.101 4.05133 181.362 4.406V3.286H182.972V11.126C182.972 11.8353 182.823 12.4653 182.524 13.016C182.225 13.576 181.791 14.0147 181.222 14.332C180.662 14.6493 179.99 14.808 179.206 14.808C178.161 14.808 177.293 14.5607 176.602 14.066C175.911 13.5807 175.519 12.918 175.426 12.078H177.008C177.129 12.4793 177.386 12.8013 177.778 13.044C178.179 13.296 178.655 13.422 179.206 13.422C179.85 13.422 180.368 13.226 180.76 12.834C181.161 12.442 181.362 11.8727 181.362 11.126V9.838C181.091 10.202 180.723 10.51 180.256 10.762C179.799 11.0047 179.276 11.126 178.688 11.126C178.016 11.126 177.4 10.958 176.84 10.622C176.289 10.2767 175.851 9.80067 175.524 9.194C175.207 8.578 175.048 7.88267 175.048 7.108C175.048 6.33333 175.207 5.64733 175.524 5.05C175.851 4.45267 176.289 3.99067 176.84 3.664C177.4 3.328 178.016 3.16 178.688 3.16ZM181.362 7.136C181.362 6.604 181.25 6.142 181.026 5.75C180.811 5.358 180.527 5.05933 180.172 4.854C179.817 4.64867 179.435 4.546 179.024 4.546C178.613 4.546 178.231 4.64867 177.876 4.854C177.521 5.05 177.232 5.344 177.008 5.736C176.793 6.11867 176.686 6.576 176.686 7.108C176.686 7.64 176.793 8.10667 177.008 8.508C177.232 8.90933 177.521 9.21733 177.876 9.432C178.24 9.63733 178.623 9.74 179.024 9.74C179.435 9.74 179.817 9.63733 180.172 9.432C180.527 9.22667 180.811 8.928 181.026 8.536C181.25 8.13467 181.362 7.668 181.362 7.136ZM186.664 0.64V11H185.068V0.64H186.664ZM195.83 6.954C195.83 7.24333 195.811 7.50467 195.774 7.738H189.88C189.926 8.354 190.155 8.84867 190.566 9.222C190.976 9.59533 191.48 9.782 192.078 9.782C192.936 9.782 193.543 9.42267 193.898 8.704H195.62C195.386 9.41333 194.962 9.99667 194.346 10.454C193.739 10.902 192.983 11.126 192.078 11.126C191.34 11.126 190.678 10.9627 190.09 10.636C189.511 10.3 189.054 9.83333 188.718 9.236C188.391 8.62933 188.228 7.92933 188.228 7.136C188.228 6.34267 188.386 5.64733 188.704 5.05C189.03 4.44333 189.483 3.97667 190.062 3.65C190.65 3.32333 191.322 3.16 192.078 3.16C192.806 3.16 193.454 3.31867 194.024 3.636C194.593 3.95333 195.036 4.40133 195.354 4.98C195.671 5.54933 195.83 6.20733 195.83 6.954ZM194.164 6.45C194.154 5.862 193.944 5.39067 193.534 5.036C193.123 4.68133 192.614 4.504 192.008 4.504C191.457 4.504 190.986 4.68133 190.594 5.036C190.202 5.38133 189.968 5.85267 189.894 6.45H194.164Z" fill="black"/>
</svg>
