<svg width="19" height="22" viewBox="0 0 19 22" fill="none" xmlns="http://www.w3.org/2000/svg">
<path d="M3.5625 5.60001C3.5625 2.50721 6.22081 0 9.5 0C12.7792 0 15.4375 2.50721 15.4375 5.60001C15.4375 8.69278 12.7792 11.2 9.5 11.2C6.22081 11.2 3.5625 8.69278 3.5625 5.60001ZM9.5 8.96001C11.4676 8.96001 13.0625 7.45568 13.0625 5.60001C13.0625 3.74433 11.4676 2.24 9.5 2.24C7.53243 2.24 5.9375 3.74433 5.9375 5.60001C5.9375 7.45568 7.53243 8.96001 9.5 8.96001Z" fill="white"/>
<path d="M2.78249 14.9443C1.00088 16.6246 0 18.9037 0 21.28H2.375C2.375 19.4978 3.12567 17.7885 4.46186 16.5283C5.79806 15.268 7.61033 14.56 9.5 14.56C11.3897 14.56 13.2019 15.268 14.5381 16.5283C15.8744 17.7885 16.625 19.4978 16.625 21.28H19C19 18.9037 17.9991 16.6246 16.2176 14.9443C14.436 13.2641 12.0195 12.32 9.5 12.32C6.98045 12.32 4.56409 13.2641 2.78249 14.9443Z" fill="white"/>
</svg>
