<svg width="28" height="20" viewBox="0 0 28 20" fill="none" xmlns="http://www.w3.org/2000/svg">
<path d="M26.5 4.04261L22.5 6.13636V1.81818C22.5 0.815341 21.6031 0 20.5 0H2C0.896875 0 0 0.815341 0 1.81818V18.1818C0 19.1847 0.896875 20 2 20H20.5C21.6031 20 22.5 19.1847 22.5 18.1818V13.8636L26.5 15.9574C27.1656 16.3068 28 15.8693 28 15.1733V4.82955C28 4.13068 27.1656 3.69318 26.5 4.04261ZM20.25 17.9545H2.25V2.04545H20.25V17.9545ZM25.75 13.2102L22.5 11.5114V8.49148L25.75 6.78977V13.2102ZM4.5 5.68182H8C8.1375 5.68182 8.25 5.57955 8.25 5.45455V4.09091C8.25 3.96591 8.1375 3.86364 8 3.86364H4.5C4.3625 3.86364 4.25 3.96591 4.25 4.09091V5.45455C4.25 5.57955 4.3625 5.68182 4.5 5.68182Z" fill="#514E4E" fill-opacity="0.9"/>
</svg>
